<?xml version="1.0" encoding="iso-8859-1"?>
<!-- Generator: Adobe Illustrator 19.0.0, SVG Export Plug-In . SVG Version: 6.00 Build 0)  -->
<svg version="1.1" id="Capa_1" xmlns="http://www.w3.org/2000/svg" xmlns:xlink="http://www.w3.org/1999/xlink" x="0px" y="0px"
	 viewBox="0 0 368 368" style="enable-background:new 0 0 368 368;" xml:space="preserve">
<g>
	<g>
		<g>
			<path d="M267.584,96.84l-32-16c-3.96-1.976-8.76-0.368-10.736,3.576c-1.984,3.96-0.376,8.76,3.576,10.744l32,16
				c1.144,0.568,2.368,0.84,3.568,0.84c2.936,0,5.76-1.616,7.168-4.424C273.136,103.624,271.536,98.816,267.584,96.84z"/>
			<path d="M104.008,112c1.2,0,2.424-0.272,3.568-0.84l32-16c3.952-1.976,5.552-6.784,3.576-10.736
				c-1.976-3.952-6.776-5.552-10.736-3.576l-32,16c-3.952,1.976-5.552,6.784-3.576,10.736C98.248,110.384,101.072,112,104.008,112z"
				/>
			<path d="M184,0C82.544,0,0,82.544,0,184s82.544,184,184,184s184-82.544,184-184S285.456,0,184,0z M184,352
				c-92.64,0-168-75.36-168-168S91.36,16,184,16s168,75.36,168,168S276.64,352,184,352z"/>
			<path d="M184,128c-48.52,0-88,39.48-88,88c0,22.288,8.344,43.52,23.472,59.736C135.984,293.696,159.504,304,184,304
				c3.064,0,6.112-0.16,9.128-0.48c21.136-2.216,40.944-12.064,55.36-27.744c0.008-0.008,0.016-0.016,0.024-0.024
				s0.008-0.008,0.008-0.008c0.008-0.008,0.008-0.016,0.016-0.024C263.672,259.472,272,238.264,272,216
				C272,167.48,232.52,128,184,128z M232.12,269.44c-0.744,0.672-1.528,1.304-2.296,1.944c-1.048,0.872-2.112,1.728-3.208,2.536
				c-0.824,0.608-1.664,1.184-2.512,1.752c-1.112,0.752-2.248,1.48-3.4,2.16c-0.88,0.52-1.768,1.024-2.664,1.512
				c-1.184,0.64-2.384,1.232-3.608,1.8c-0.92,0.432-1.832,0.856-2.768,1.248c-1.264,0.528-2.552,1-3.84,1.456
				c-0.928,0.328-1.856,0.664-2.792,0.952c-1.368,0.416-2.752,0.76-4.144,1.096c-0.904,0.216-1.8,0.472-2.72,0.656
				c-1.544,0.312-3.104,0.528-4.672,0.736c-0.784,0.104-1.568,0.256-2.36,0.336c-2.36,0.24-4.744,0.376-7.136,0.376
				c-2.4,0-4.784-0.136-7.144-0.376c-0.776-0.08-1.536-0.224-2.312-0.328c-1.584-0.208-3.16-0.432-4.72-0.744
				c-0.896-0.184-1.776-0.424-2.672-0.64c-1.408-0.344-2.816-0.688-4.2-1.112c-0.92-0.28-1.824-0.616-2.728-0.936
				c-1.32-0.464-2.64-0.944-3.936-1.488c-0.896-0.376-1.776-0.784-2.656-1.192c-1.272-0.592-2.528-1.216-3.76-1.88
				c-0.848-0.456-1.68-0.928-2.504-1.416c-1.224-0.72-2.416-1.488-3.592-2.288c-0.784-0.528-1.568-1.064-2.336-1.624
				c-1.16-0.856-2.28-1.768-3.392-2.688c-0.72-0.6-1.448-1.184-2.144-1.816c-0.28-0.248-0.536-0.536-0.808-0.792
				C144.888,251.096,163.536,240,184,240s39.112,11.096,48.904,28.672C232.64,268.92,232.392,269.192,232.12,269.44z
				 M243.752,255.992C230.568,236.28,208.328,224,184,224s-46.568,12.28-59.752,32C116.328,244.256,112,230.416,112,216
				c0-39.696,32.304-72,72-72s72,32.304,72,72C256,230.408,251.672,244.24,243.752,255.992z"/>
		</g>
	</g>
</g>
<g>
</g>
<g>
</g>
<g>
</g>
<g>
</g>
<g>
</g>
<g>
</g>
<g>
</g>
<g>
</g>
<g>
</g>
<g>
</g>
<g>
</g>
<g>
</g>
<g>
</g>
<g>
</g>
<g>
</g>
</svg>
