<?xml version="1.0" encoding="iso-8859-1"?>
<!-- Generator: Adobe Illustrator 19.0.0, SVG Export Plug-In . SVG Version: 6.00 Build 0)  -->
<svg version="1.1" id="Capa_1" xmlns="http://www.w3.org/2000/svg" xmlns:xlink="http://www.w3.org/1999/xlink" x="0px" y="0px"
	 viewBox="0 0 368 368" style="enable-background:new 0 0 368 368;" xml:space="preserve">
<g>
	<g>
		<g>
			<path d="M261.336,226.04c-3.296-2.952-8.352-2.664-11.296,0.624C233.352,245.312,209.288,256,184,256
				c-25.28,0-49.352-10.688-66.04-29.336c-2.952-3.288-8-3.576-11.296-0.624c-3.296,2.944-3.568,8-0.624,11.296
				C125.76,259.368,154.176,272,184,272c29.832,0,58.248-12.64,77.96-34.664C264.904,234.04,264.624,228.984,261.336,226.04z"/>
			<path d="M184,0C82.544,0,0,82.544,0,184s82.544,184,184,184s184-82.544,184-184S285.456,0,184,0z M184,352
				c-92.64,0-168-75.36-168-168S91.36,16,184,16s168,75.36,168,168S276.64,352,184,352z"/>
			<path d="M248,112c-22.056,0-40,17.944-40,40c0,22.056,17.944,40,40,40c22.056,0,40-17.944,40-40C288,129.944,270.056,112,248,112
				z M248,176c-13.232,0-24-10.768-24-24s10.768-24,24-24s24,10.768,24,24S261.232,176,248,176z"/>
			<path d="M160,152c0-3.032-1.712-5.8-4.424-7.16l-64-32c-3.968-1.984-8.76-0.368-10.736,3.576
				c-1.976,3.952-0.376,8.76,3.576,10.736L134.112,152l-49.688,24.84c-3.952,1.976-5.552,6.784-3.576,10.736
				c1.4,2.808,4.224,4.424,7.16,4.424c1.2,0,2.424-0.272,3.568-0.84l64-32C158.288,157.8,160,155.032,160,152z"/>
		</g>
	</g>
</g>
<g>
</g>
<g>
</g>
<g>
</g>
<g>
</g>
<g>
</g>
<g>
</g>
<g>
</g>
<g>
</g>
<g>
</g>
<g>
</g>
<g>
</g>
<g>
</g>
<g>
</g>
<g>
</g>
<g>
</g>
</svg>
