<?xml version="1.0" encoding="iso-8859-1"?>
<!-- Generator: Adobe Illustrator 19.0.0, SVG Export Plug-In . SVG Version: 6.00 Build 0)  -->
<svg version="1.1" id="Capa_1" xmlns="http://www.w3.org/2000/svg" xmlns:xlink="http://www.w3.org/1999/xlink" x="0px" y="0px"
	 viewBox="0 0 368 368" style="enable-background:new 0 0 368 368;" xml:space="preserve">
<g>
	<g>
		<g>
			<path d="M248,128c-13.232,0-24,10.768-24,24s10.768,24,24,24s24-10.768,24-24S261.232,128,248,128z M248,160
				c-4.416,0-8-3.592-8-8s3.584-8,8-8c4.416,0,8,3.592,8,8S252.416,160,248,160z"/>
			<path d="M144,152c0-13.232-10.768-24-24-24s-24,10.768-24,24s10.768,24,24,24S144,165.232,144,152z M112,152c0-4.408,3.584-8,8-8
				s8,3.592,8,8s-3.584,8-8,8S112,156.408,112,152z"/>
			<path d="M184,0C82.536,0,0,82.544,0,184s82.536,184,184,184s184-82.544,184-184S285.464,0,184,0z M184,352
				c-92.632,0-168-75.36-168-168S91.368,16,184,16s168,75.36,168,168S276.632,352,184,352z"/>
			<path d="M250.816,272.504L206.792,256l44.024-16.504c4.136-1.552,6.224-6.168,4.68-10.304c-1.544-4.144-6.16-6.208-10.304-4.68
				L184,247.456l-61.184-22.952c-4.136-1.528-8.76,0.544-10.304,4.68s0.544,8.744,4.68,10.304L161.208,256l-44.024,16.504
				c-4.136,1.552-6.224,6.168-4.68,10.304c1.208,3.208,4.264,5.192,7.496,5.192c0.936,0,1.88-0.168,2.816-0.512L184,264.544
				l61.184,22.944c0.936,0.344,1.88,0.512,2.816,0.512c3.232,0,6.288-1.984,7.496-5.192
				C257.04,278.672,254.952,274.064,250.816,272.504z"/>
		</g>
	</g>
</g>
<g>
</g>
<g>
</g>
<g>
</g>
<g>
</g>
<g>
</g>
<g>
</g>
<g>
</g>
<g>
</g>
<g>
</g>
<g>
</g>
<g>
</g>
<g>
</g>
<g>
</g>
<g>
</g>
<g>
</g>
</svg>
