<?xml version="1.0" encoding="iso-8859-1"?>
<!-- Generator: Adobe Illustrator 19.0.0, SVG Export Plug-In . SVG Version: 6.00 Build 0)  -->
<svg version="1.1" id="Capa_1" xmlns="http://www.w3.org/2000/svg" xmlns:xlink="http://www.w3.org/1999/xlink" x="0px" y="0px"
	 viewBox="0 0 368 368" style="enable-background:new 0 0 368 368;" xml:space="preserve">
<g>
	<g>
		<g>
			<path d="M119.992,144c13.232,0,24-10.768,24-24s-10.768-24-24-24s-24,10.768-24,24S106.76,144,119.992,144z M119.992,112
				c4.416,0,8,3.592,8,8s-3.584,8-8,8s-8-3.592-8-8S115.576,112,119.992,112z"/>
			<path d="M247.992,96c-13.232,0-24,10.768-24,24s10.768,24,24,24s24-10.768,24-24S261.224,96,247.992,96z M247.992,128
				c-4.416,0-8-3.592-8-8s3.584-8,8-8c4.416,0,8,3.592,8,8S252.408,128,247.992,128z"/>
			<path d="M184,0C82.536,0,0,82.544,0,184s82.536,184,184,184s184-82.544,184-184S285.464,0,184,0z M184,352
				c-92.632,0-168-75.36-168-168S91.368,16,184,16s168,75.36,168,168S276.632,352,184,352z"/>
			<path d="M263.992,192c4.424,0,8-3.584,8-8c0-4.416-3.576-8-8-8c-17.296,0-31.92,11.104-37.488,26.504
				c-8.88-4.992-22.936-10.504-42.512-10.504s-33.632,5.512-42.512,10.504c-5.568-15.4-20.192-26.504-37.488-26.504
				c-4.424,0-8,3.584-8,8s3.576,8,8,8c13.232,0,24,10.768,24,24s-10.768,24-24,24c-4.424,0-8,3.584-8,8c0,4.416,3.576,8,8,8
				c20.664,0,37.52-15.808,39.592-35.928c4.624-3.6,17.864-12.072,40.408-12.072c22.584,0,35.832,8.504,40.408,12.064
				C226.472,240.192,243.328,256,263.992,256c4.424,0,8-3.584,8-8c0-4.416-3.576-8-8-8c-13.232,0-24-10.768-24-24
				S250.76,192,263.992,192z"/>
		</g>
	</g>
</g>
<g>
</g>
<g>
</g>
<g>
</g>
<g>
</g>
<g>
</g>
<g>
</g>
<g>
</g>
<g>
</g>
<g>
</g>
<g>
</g>
<g>
</g>
<g>
</g>
<g>
</g>
<g>
</g>
<g>
</g>
</svg>
