<?xml version="1.0" encoding="iso-8859-1"?>
<!-- Generator: Adobe Illustrator 19.0.0, SVG Export Plug-In . SVG Version: 6.00 Build 0)  -->
<svg version="1.1" id="Capa_1" xmlns="http://www.w3.org/2000/svg" xmlns:xlink="http://www.w3.org/1999/xlink" x="0px" y="0px"
	 viewBox="0 0 368 368" style="enable-background:new 0 0 368 368;" xml:space="preserve">
<g>
	<g>
		<g>
			<path d="M248,224c-4.416,0-8,3.584-8,8c0,13.232-10.768,24-24,24s-24-10.768-24-24c0-4.416-3.584-8-8-8c-4.416,0-8,3.584-8,8
				c0,13.232-10.768,24-24,24s-24-10.768-24-24c0-4.416-3.584-8-8-8s-8,3.584-8,8c0,22.056,17.944,40,40,40
				c13.072,0,24.696-6.304,32-16.024c7.304,9.72,18.928,16.024,32,16.024c22.056,0,40-17.944,40-40C256,227.584,252.416,224,248,224
				z"/>
			<path d="M144,152c0-13.232-10.768-24-24-24s-24,10.768-24,24s10.768,24,24,24S144,165.232,144,152z M112,152c0-4.408,3.592-8,8-8
				s8,3.592,8,8s-3.592,8-8,8S112,156.408,112,152z"/>
			<path d="M248,128c-13.232,0-24,10.768-24,24s10.768,24,24,24s24-10.768,24-24S261.232,128,248,128z M248,160
				c-4.408,0-8-3.592-8-8s3.592-8,8-8c4.408,0,8,3.592,8,8S252.408,160,248,160z"/>
			<path d="M184,0C82.544,0,0,82.544,0,184s82.544,184,184,184s184-82.544,184-184S285.464,0,184,0z M184,352
				c-92.64,0-168-75.36-168-168S91.36,16,184,16s168,75.36,168,168S276.64,352,184,352z"/>
		</g>
	</g>
</g>
<g>
</g>
<g>
</g>
<g>
</g>
<g>
</g>
<g>
</g>
<g>
</g>
<g>
</g>
<g>
</g>
<g>
</g>
<g>
</g>
<g>
</g>
<g>
</g>
<g>
</g>
<g>
</g>
<g>
</g>
</svg>
