<?xml version="1.0" encoding="iso-8859-1"?>
<!-- Generator: Adobe Illustrator 19.0.0, SVG Export Plug-In . SVG Version: 6.00 Build 0)  -->
<svg version="1.1" id="Capa_1" xmlns="http://www.w3.org/2000/svg" xmlns:xlink="http://www.w3.org/1999/xlink" x="0px" y="0px"
	 viewBox="0 0 368 368" style="enable-background:new 0 0 368 368;" xml:space="preserve">
<g>
	<g>
		<g>
			<path d="M216,160c4.424,0,8-3.584,8-8c0-13.232,10.768-24,24-24s24,10.768,24,24c0,4.416,3.576,8,8,8s8-3.584,8-8
				c0-22.056-17.944-40-40-40c-22.056,0-40,17.944-40,40C208,156.416,211.576,160,216,160z"/>
			<path d="M88,160c4.424,0,8-3.584,8-8c0-13.232,10.768-24,24-24s24,10.768,24,24c0,4.416,3.576,8,8,8s8-3.584,8-8
				c0-22.056-17.944-40-40-40c-22.056,0-40,17.944-40,40C80,156.416,83.576,160,88,160z"/>
			<path d="M184,0C82.536,0,0,82.544,0,184s82.536,184,184,184s184-82.544,184-184S285.464,0,184,0z M184,352
				c-92.632,0-168-75.36-168-168S91.368,16,184,16s168,75.36,168,168S276.632,352,184,352z"/>
			<path d="M264,192c-20.664,0-37.52,15.808-39.592,35.928C219.784,231.528,206.544,240,184,240
				c-22.552,0-35.784-8.48-40.408-12.072C141.512,207.808,124.656,192,104,192c-22.056,0-40,17.944-40,40c0,22.056,17.944,40,40,40
				c17.296,0,31.92-11.104,37.488-26.504C150.368,250.488,164.424,256,184,256s33.632-5.512,42.512-10.504
				C232.08,260.896,246.704,272,264,272c22.056,0,40-17.944,40-40C304,209.944,286.056,192,264,192z M104,256
				c-13.232,0-24-10.768-24-24s10.768-24,24-24s24,10.768,24,24S117.232,256,104,256z M264,256c-13.232,0-24-10.768-24-24
				s10.768-24,24-24s24,10.768,24,24S277.232,256,264,256z"/>
		</g>
	</g>
</g>
<g>
</g>
<g>
</g>
<g>
</g>
<g>
</g>
<g>
</g>
<g>
</g>
<g>
</g>
<g>
</g>
<g>
</g>
<g>
</g>
<g>
</g>
<g>
</g>
<g>
</g>
<g>
</g>
<g>
</g>
</svg>
